<svg width="17" height="17" viewBox="0 0 17 17" fill="none" xmlns="http://www.w3.org/2000/svg">
<path d="M6.90625 11.6875H4.78125C3.93587 11.6875 3.12512 11.3517 2.52735 10.7539C1.92958 10.1561 1.59375 9.34538 1.59375 8.5C1.59375 7.65462 1.92958 6.84387 2.52735 6.2461C3.12512 5.64833 3.93587 5.3125 4.78125 5.3125H6.90625" stroke="white" stroke-width="2" stroke-linecap="round" stroke-linejoin="round"/>
<path d="M10.0938 5.3125H12.2188C13.0641 5.3125 13.8749 5.64833 14.4727 6.2461C15.0704 6.84387 15.4062 7.65462 15.4062 8.5C15.4062 9.34538 15.0704 10.1561 14.4727 10.7539C13.8749 11.3517 13.0641 11.6875 12.2188 11.6875H10.0938" stroke="white" stroke-width="2" stroke-linecap="round" stroke-linejoin="round"/>
<path d="M5.42181 8.5H11.6448" stroke="white" stroke-width="2" stroke-linecap="round" stroke-linejoin="round"/>
</svg>