<svg width="471" height="80" viewBox="0 0 471 80" fill="none" xmlns="http://www.w3.org/2000/svg"><path fill-rule="evenodd" clip-rule="evenodd" d="M0 13.043C0 5.84 5.84 0 13.045 0h53.92C74.169 0 80.01 5.84 80.01 13.043v53.914C80.01 74.16 74.17 80 66.965 80h-53.92C5.84 80 0 74.16 0 66.957V13.044zm14.495 1.45v51.014h51.02V14.493h-51.02z" fill="#1BAAA0"/><path d="M111.713 56.195v-17.03h10.269v-9.85h-10.269V16.96H101.08c0 12.355 0 12.355-7.484 12.355v9.85h6.011v17.698c0 11.603 6.538 14.19 15.388 14.19h6.987v-9.349h-4.675c-3.841 0-5.594-1.753-5.594-5.51z" fill="#1BAAA0"/><path d="M142.932 71.054l6.428-32.724 6.345 32.724H170.9l9.351-41.74h-11.02l-6.346 32.557-6.345-32.556h-14.443l-6.345 32.556-6.345-32.556h-11.021l9.351 41.739h15.195zM187.235 22.052c4.258 0 7.263-3.088 7.263-7.012 0-3.923-3.005-6.929-7.263-6.929-4.091 0-7.18 3.005-7.18 6.929 0 3.924 3.089 7.012 7.18 7.012zm6.094 49.002v-41.74h-12.105v41.74h12.105zM221.853 28.48c-4.926 0-9.184 2.17-12.273 5.844V8.445h-12.106v62.609h11.856V65.71c3.089 3.924 7.43 6.178 12.523 6.178 11.354 0 19.453-8.682 19.453-21.705 0-13.022-8.099-21.704-19.453-21.704zm-2.338 10.769c5.678 0 9.852 4.34 9.852 10.935 0 6.595-4.174 10.936-9.852 10.936-5.677 0-9.935-4.34-9.935-10.936 0-6.594 4.258-10.935 9.935-10.935zM267.374 28.48c-4.926 0-9.184 2.17-12.273 5.844V8.445h-12.106v62.609h11.855V65.71c3.089 3.924 7.431 6.178 12.524 6.178 11.354 0 19.452-8.682 19.452-21.705 0-13.022-8.098-21.704-19.452-21.704zm-2.338 10.769c5.677 0 9.851 4.34 9.851 10.935 0 6.595-4.174 10.936-9.851 10.936-5.677 0-9.935-4.34-9.935-10.936 0-6.594 4.258-10.935 9.935-10.935zM310.223 71.889c12.439 0 21.707-8.849 21.707-21.705 0-12.855-9.268-21.704-21.707-21.704-12.44 0-21.707 8.849-21.707 21.704 0 12.856 9.267 21.705 21.707 21.705zm0-10.769c-5.678 0-9.936-4.424-9.936-10.936 0-6.511 4.258-10.935 9.936-10.935 5.677 0 9.935 4.424 9.935 10.935 0 6.512-4.258 10.936-9.935 10.936zM361.574 48.014v23.04h12.106V45.259c0-11.186-6.512-16.779-15.195-16.779-5.259 0-9.684 2.504-12.189 6.929v-6.094h-11.855v41.739h12.105v-23.04c0-6.261 2.756-9.517 7.514-9.517 4.759 0 7.514 3.256 7.514 9.517zM383.028 22.052c4.258 0 7.263-3.088 7.263-7.012 0-3.923-3.005-6.929-7.263-6.929-4.091 0-7.18 3.005-7.18 6.929 0 3.924 3.089 7.012 7.18 7.012zm6.094 49.002v-41.74h-12.106v41.74h12.106zM427.915 71.054v-9.85h-23.21l21.54-19.534V29.315h-32.978v9.85h21.123L392.85 58.7v12.355h35.065zM470.388 53.523c.083-1.085.167-2.17.167-3.339 0-12.772-8.85-21.704-21.123-21.704-12.273 0-21.122 8.932-21.122 21.704 0 12.773 8.849 21.705 21.122 21.705 10.269 0 17.533-4.842 20.121-14.025H457.28c-1.169 2.755-3.673 4.174-7.514 4.174-5.51 0-8.933-3.005-9.852-8.514h30.474zm-20.956-15.11c5.093 0 8.432 2.756 9.434 8.015h-18.868c1.002-5.26 4.258-8.014 9.434-8.014z" fill="#1BAAA0"/></svg>