<svg width="193" height="19" viewBox="0 0 193 19" fill="none" xmlns="http://www.w3.org/2000/svg">
<path d="M0.853332 18.0214H2.7568V13.9425H2.93808C3.33086 14.577 3.99556 15.2115 5.32497 15.2115C7.19822 15.2115 8.76934 13.5497 8.76934 11.2535C8.76934 8.95725 7.19822 7.29549 5.32497 7.29549C3.99556 7.29549 3.33086 7.92998 2.93808 8.56447H2.72658V7.50699H0.853332V18.0214ZM4.81133 13.5195C3.633 13.5195 2.7568 12.6735 2.7568 11.2535C2.7568 9.83345 3.633 8.98746 4.81133 8.98746C5.95946 8.98746 6.86587 9.80323 6.86587 11.2535C6.86587 12.7038 5.95946 13.5195 4.81133 13.5195ZM8.88181 11.2535C8.88181 13.6102 10.604 15.2115 12.8096 15.2115C15.0152 15.2115 16.7374 13.6102 16.7374 11.2535C16.7374 8.89682 15.0152 7.29549 12.8096 7.29549C10.604 7.29549 8.88181 8.89682 8.88181 11.2535ZM10.7853 11.2535C10.7853 9.89388 11.601 8.98746 12.8096 8.98746C14.0181 8.98746 14.8339 9.89388 14.8339 11.2535C14.8339 12.6131 14.0181 13.5195 12.8096 13.5195C11.601 13.5195 10.7853 12.6131 10.7853 11.2535ZM16.5317 7.50699L18.0121 15H20.7314L21.9097 9.13853H22.091L23.2693 15H25.9886L27.4691 7.50699H25.5656L24.6743 13.3685H24.493L23.3147 7.50699H20.6861L19.5077 13.3685H19.3264L18.4351 7.50699H16.5317ZM27.2614 11.1931C27.2614 13.5195 28.8779 15.2115 31.1137 15.2115C33.1229 15.2115 33.9991 14.154 34.5127 13.3685L32.9567 12.462C32.6999 12.9908 32.141 13.58 31.0835 13.58C29.9958 13.58 29.2858 12.8095 29.2102 11.8124H34.6638V11.0722C34.6638 8.82129 33.1985 7.29549 31.0231 7.29549C28.8175 7.29549 27.2614 8.92704 27.2614 11.1931ZM29.2253 10.483C29.3764 9.56152 29.9354 8.92704 31.008 8.92704C31.9899 8.92704 32.5942 9.53131 32.7301 10.483H29.2253ZM37.0369 7.50699H35.1636V15H37.0671V10.7701C37.0671 9.71259 37.762 9.19896 38.7289 9.19896H39.8468V7.47678H39.1216C38.1699 7.47678 37.5354 7.76381 37.2484 8.59468H37.0369V7.50699ZM39.4597 11.1931C39.4597 13.5195 41.0761 15.2115 43.3119 15.2115C45.3211 15.2115 46.1973 14.154 46.711 13.3685L45.155 12.462C44.8981 12.9908 44.3392 13.58 43.2817 13.58C42.194 13.58 41.484 12.8095 41.4084 11.8124H46.862V11.0722C46.862 8.82129 45.3967 7.29549 43.2213 7.29549C41.0157 7.29549 39.4597 8.92704 39.4597 11.1931ZM41.4236 10.483C41.5746 9.56152 42.1336 8.92704 43.2062 8.92704C44.1881 8.92704 44.7924 9.53131 44.9284 10.483H41.4236ZM54.8247 4.42519H52.9212V8.56447H52.7399C52.3471 7.92998 51.6824 7.29549 50.353 7.29549C48.4798 7.29549 46.9086 8.95725 46.9086 11.2535C46.9086 13.5497 48.4798 15.2115 50.353 15.2115C51.6824 15.2115 52.3471 14.577 52.7399 13.9425H52.9514V15H54.8247V4.42519ZM50.8666 8.98746C52.045 8.98746 52.9212 9.83345 52.9212 11.2535C52.9212 12.6735 52.045 13.5195 50.8666 13.5195C49.7185 13.5195 48.8121 12.7038 48.8121 11.2535C48.8121 9.80323 49.7185 8.98746 50.8666 8.98746ZM59.2355 4.42519V15H61.1088V13.9425H61.3203C61.713 14.577 62.3777 15.2115 63.7071 15.2115C65.5804 15.2115 67.1515 13.5497 67.1515 11.2535C67.1515 8.95725 65.5804 7.29549 63.7071 7.29549C62.3777 7.29549 61.713 7.92998 61.3203 8.56447H61.139V4.42519H59.2355ZM63.1935 8.98746C64.3416 8.98746 65.248 9.80323 65.248 11.2535C65.248 12.7038 64.3416 13.5195 63.1935 13.5195C62.0152 13.5195 61.139 12.6735 61.139 11.2535C61.139 9.83345 62.0152 8.98746 63.1935 8.98746ZM72.9175 7.50699L70.9536 12.885H70.7723L68.8084 7.50699H66.7539L69.8659 15.4834L68.8084 18.0214H70.863L74.972 7.50699H72.9175Z" fill="#1BAAA0"/>
<path d="M106.006 12.1802V8.34858H108.49V6.13223H106.006V3.35241H103.433C103.433 6.13223 103.433 6.13223 101.623 6.13223V8.34858H103.077V12.3305C103.077 14.9413 104.659 15.5235 106.8 15.5235C107.405 15.5235 108.49 15.5235 108.49 15.5235V13.4199C108.49 13.4199 107.711 13.4199 107.359 13.4199C106.43 13.4199 106.006 13.0254 106.006 12.1802Z" fill="#1BAAA0"/>
<path d="M113.558 15.5235L115.113 8.16075L116.648 15.5235H120.324L122.586 6.13223H119.92L118.385 13.4575L116.85 6.13223H113.356L111.821 13.4575L110.286 6.13223H107.62L109.882 15.5235H113.558Z" fill="#1BAAA0"/>
<path d="M124.276 4.49815C125.306 4.49815 126.033 3.80319 126.033 2.92041C126.033 2.03762 125.306 1.36145 124.276 1.36145C123.286 1.36145 122.539 2.03762 122.539 2.92041C122.539 3.80319 123.286 4.49815 124.276 4.49815ZM125.75 15.5235V6.13223H122.821V15.5235H125.75Z" fill="#1BAAA0"/>
<path d="M132.65 5.94441C131.459 5.94441 130.429 6.43275 129.681 7.25919V1.43658H126.753V15.5235H129.621V14.3215C130.368 15.2042 131.418 15.7114 132.65 15.7114C135.397 15.7114 137.356 13.758 137.356 10.8279C137.356 7.8978 135.397 5.94441 132.65 5.94441ZM132.085 8.36736C133.458 8.36736 134.468 9.34406 134.468 10.8279C134.468 12.3117 133.458 13.2884 132.085 13.2884C130.711 13.2884 129.681 12.3117 129.681 10.8279C129.681 9.34406 130.711 8.36736 132.085 8.36736Z" fill="#1BAAA0"/>
<path d="M143.662 5.94441C142.471 5.94441 141.441 6.43275 140.693 7.25919V1.43658H137.765V15.5235H140.633V14.3215C141.38 15.2042 142.43 15.7114 143.662 15.7114C146.409 15.7114 148.368 13.758 148.368 10.8279C148.368 7.8978 146.409 5.94441 143.662 5.94441ZM143.097 8.36736C144.47 8.36736 145.48 9.34406 145.48 10.8279C145.48 12.3117 144.47 13.2884 143.097 13.2884C141.723 13.2884 140.693 12.3117 140.693 10.8279C140.693 9.34406 141.723 8.36736 143.097 8.36736Z" fill="#1BAAA0"/>
<path d="M154.028 15.7114C157.038 15.7114 159.279 13.7204 159.279 10.8279C159.279 7.93536 157.038 5.94441 154.028 5.94441C151.019 5.94441 148.777 7.93536 148.777 10.8279C148.777 13.7204 151.019 15.7114 154.028 15.7114ZM154.028 13.2884C152.655 13.2884 151.625 12.2929 151.625 10.8279C151.625 9.36284 152.655 8.36736 154.028 8.36736C155.402 8.36736 156.432 9.36284 156.432 10.8279C156.432 12.2929 155.402 13.2884 154.028 13.2884Z" fill="#1BAAA0"/>
<path d="M166.451 10.3395V15.5235H169.38V9.71971C169.38 7.20284 167.804 5.94441 165.704 5.94441C164.431 5.94441 163.361 6.50788 162.755 7.50336V6.13223H159.887V15.5235H162.816V10.3395C162.816 8.93084 163.482 8.19832 164.633 8.19832C165.785 8.19832 166.451 8.93084 166.451 10.3395Z" fill="#1BAAA0"/>
<path d="M171.641 4.49815C172.671 4.49815 173.398 3.80319 173.398 2.92041C173.398 2.03762 172.671 1.36145 171.641 1.36145C170.651 1.36145 169.904 2.03762 169.904 2.92041C169.904 3.80319 170.651 4.49815 171.641 4.49815ZM173.115 15.5235V6.13223H170.187V15.5235H173.115Z" fill="#1BAAA0"/>
<path d="M182.5 15.5235V13.3072H176.885L182.096 8.91206V6.13223H174.118V8.34858H179.228L174.017 12.7437V15.5235H182.5Z" fill="#1BAAA0"/>
<path d="M192.775 11.5792C192.795 11.335 192.815 11.0908 192.815 10.8279C192.815 7.95415 190.674 5.94441 187.705 5.94441C184.736 5.94441 182.595 7.95415 182.595 10.8279C182.595 13.7016 184.736 15.7114 187.705 15.7114C190.189 15.7114 191.947 14.622 192.573 12.5559H189.604C189.321 13.1757 188.715 13.495 187.786 13.495C186.453 13.495 185.625 12.8188 185.403 11.5792H192.775ZM187.705 8.17954C188.937 8.17954 189.745 8.79936 189.987 9.98267H185.423C185.665 8.79936 186.453 8.17954 187.705 8.17954Z" fill="#1BAAA0"/>
<path fill-rule="evenodd" clip-rule="evenodd" d="M79.1094 2.93478C79.1094 1.31395 80.5223 0 82.2652 0H95.3091C97.052 0 98.4649 1.31395 98.4649 2.93478V15.0652C98.4649 16.6861 97.052 18 95.3091 18H82.2652C80.5223 18 79.1094 16.6861 79.1094 15.0652V2.93478ZM82.6158 3.26087V14.7391H94.9585V3.26087H82.6158Z" fill="#1BAAA0"/>
</svg>