<svg version="1" xmlns="http://www.w3.org/2000/svg" width="557.333" height="557.333" viewBox="0 0 418.000000 418.000000"><path d="M97.5 60.1c-5.7 1.3-13.2 4.8-18.8 8.7-7.2 5.2-15.6 16.9-17.2 24.1-.2.9-.9 3.2-1.4 5.1-1.3 4.1-1 219.8.2 224.5 1.3 4.8 6.6 14.6 10.4 19.3 4.3 5.3 13.7 11.7 21.2 14.6 5.6 2.1 5.7 2.1 115.6 2.1 60.5 0 111.7-.3 113.8-.8 11.8-2.3 26.3-13.6 32-24.9 5.9-11.6 5.7-7 5.7-123 0-75.2-.3-108.2-1.1-112-3.8-17.8-18-32.6-36-37.3-4.5-1.2-23.1-1.4-112.9-1.4-59.6.1-109.3.5-111.5 1zM304.6 209v95.6H113.4l.1-95c.1-52.3.3-95.4.3-95.7.1-.3 43.1-.5 95.5-.5h95.3V209z"/></svg>