<svg width="26" height="26" viewBox="0 0 26 26" fill="none" xmlns="http://www.w3.org/2000/svg">
<path fill-rule="evenodd" clip-rule="evenodd" d="M4.0374 0H18.9622C23.1758 2.45191 25.9998 6.91351 25.9998 11.9999C25.9998 19.7195 19.4951 25.9999 11.4998 25.9999C6.82123 25.9999 2.65308 23.8494 0 20.5184V3.48141C1.10654 2.09213 2.47664 0.908203 4.0374 0ZM12.547 4.04666C12.237 3.84668 11.8726 3.73994 11.4998 3.73994C10.9998 3.73994 10.5204 3.93169 10.1669 4.273C9.81335 4.61432 9.61475 5.07724 9.61475 5.55994C9.61475 5.9199 9.7253 6.27178 9.93243 6.57108C10.1396 6.87037 10.434 7.10365 10.7784 7.2414C11.1228 7.37915 11.5018 7.41519 11.8675 7.34497C12.2332 7.27474 12.569 7.10141 12.8327 6.84687C13.0963 6.59234 13.2758 6.26805 13.3485 5.915C13.4213 5.56196 13.3839 5.19602 13.2413 4.86346C13.0986 4.53089 12.857 4.24665 12.547 4.04666ZM8.59975 19.5599H14.9798C15.2874 19.5599 15.5825 19.4419 15.8 19.2319C16.0175 19.0219 16.1398 18.737 16.1398 18.4399C16.1398 18.1429 16.0175 17.858 15.8 17.648C15.5825 17.4379 15.2874 17.3199 14.9798 17.3199H12.9498V10.0399C12.9498 9.7429 12.8275 9.45802 12.61 9.24798C12.3925 9.03794 12.0974 8.91994 11.7898 8.91994H9.46976C9.16209 8.91994 8.86705 9.03794 8.64951 9.24798C8.43197 9.45802 8.30975 9.7429 8.30975 10.0399C8.30975 10.337 8.43197 10.6219 8.64951 10.8319C8.86705 11.0419 9.16209 11.1599 9.46976 11.1599H10.6298V17.3199H8.59975C8.2921 17.3199 7.99706 17.4379 7.7795 17.648C7.56197 17.858 7.43976 18.1429 7.43976 18.4399C7.43976 18.737 7.56197 19.0219 7.7795 19.2319C7.99706 19.4419 8.2921 19.5599 8.59975 19.5599Z" fill="#1BAAA0"/>
</svg>